<svg width="24" height="38" viewBox="0 0 24 38" fill="none" xmlns="http://www.w3.org/2000/svg">
<path d="M6.50379 18.0698C8.43654 16.7974 10.7306 16.188 13.04 16.3336C15.3494 16.4791 17.5488 17.3717 19.3065 18.8767C21.0642 20.3817 22.2848 22.4174 22.7843 24.6769C23.2837 26.9363 23.0349 29.2968 22.0753 31.4025C21.1157 33.5081 19.4975 35.2446 17.4646 36.35C15.4317 37.4554 13.0946 37.8698 10.8056 37.5306C8.5166 37.1914 6.4 36.1171 4.77503 34.4697C3.15006 32.8223 2.10487 30.6912 1.79712 28.3978C0.82379 23.6164 0.445122 17.8698 2.34912 12.6671C4.39179 7.09377 8.91979 2.52311 17.0291 0.400436C17.7049 0.245159 18.4146 0.359196 19.0077 0.718369C19.6008 1.07754 20.0306 1.65361 20.2061 2.3244C20.3816 2.9952 20.289 3.70798 19.9478 4.3116C19.6066 4.91521 19.0437 5.36219 18.3785 5.55777C11.8185 7.2751 8.75179 10.7044 7.35712 14.5018C6.94379 15.6351 6.66379 16.8324 6.50379 18.0698Z" fill="#01AF57"/>
</svg>
